<svg xmlns="http://www.w3.org/2000/svg" viewBox="0 0 566.8 79.0" width="287" height="40"><g transform="translate(2 9.00) scale(2.3101) translate(-1.4 -18.6)"><path d="M32 24.2C38 23.2 42 26.8 48 26.8 54 26.8 57.6 23.2 62 21.2" fill="none" stroke="#6BA1F2" stroke-width="5.6" stroke-linecap="round" stroke-linejoin="round"/><path d="M4 45C14 44.4 22 41 30 36 33.6 33.8 37.2 33.2 39.8 34.4 41.6 35.2 42.4 36.8 42.2 38.4" fill="none" stroke="#1558E0" stroke-width="5.6" stroke-linecap="round" stroke-linejoin="round"/></g><g transform="translate(168.00 75.50)"><path fill="#0A1B33" d="M18.5 0.0 2.0 -54.1 15.3 -54.0 25.1 -21.8 35.050000000000004 -54.0H46.35L56.300000000000004 -21.8L66.10000000000001 -54.0H79.4L62.900000000000006 0.0H52.5L40.7 -35.2L28.900000000000002 0.0Z M95.9 1.5Q90.10000000000001 1.5 86.07500000000002 -0.7250000000000001Q82.05000000000001 -2.95 79.97500000000001 -6.675000000000001Q77.9 -10.4 77.9 -14.9Q77.9 -18.650000000000002 79.05000000000001 -21.75Q80.2 -24.85 82.775 -27.225Q85.35000000000001 -29.6 89.7 -31.200000000000003Q92.7 -32.300000000000004 96.85 -33.150000000000006Q101.0 -34.0 106.25 -34.775000000000006Q111.5 -35.550000000000004 117.80000000000001 -36.5L112.9 -33.800000000000004Q112.9 -38.6 110.60000000000001 -40.85Q108.30000000000001 -43.1 102.9 -43.1Q99.9 -43.1 96.65 -41.650000000000006Q93.4 -40.2 92.10000000000001 -36.5L79.80000000000001 -40.400000000000006Q81.85000000000001 -47.1 87.5 -51.3Q93.15 -55.5 102.9 -55.5Q110.05000000000001 -55.5 115.60000000000001 -53.3Q121.15 -51.1 124.0 -45.7Q125.60000000000001 -42.7 125.9 -39.7Q126.20000000000002 -36.7 126.20000000000002 -33.0V0.0H114.30000000000001V-11.100000000000001L116.0 -8.8Q112.05000000000001 -3.35 107.47500000000001 -0.925Q102.9 1.5 95.9 1.5ZM98.80000000000001 -9.200000000000001Q102.55000000000001 -9.200000000000001 105.12500000000001 -10.525000000000002Q107.70000000000002 -11.850000000000001 109.22500000000001 -13.55Q110.75 -15.25 111.30000000000001 -16.400000000000002Q112.35000000000001 -18.6 112.525 -21.525000000000002Q112.70000000000002 -24.450000000000003 112.70000000000002 -26.400000000000002L116.70000000000002 -25.400000000000002Q110.65 -24.400000000000002 106.9 -23.725Q103.15 -23.05 100.85000000000001 -22.5Q98.55000000000001 -21.950000000000003 96.80000000000001 -21.3Q94.80000000000001 -20.5 93.57500000000002 -19.575000000000003Q92.35000000000001 -18.650000000000002 91.775 -17.55Q91.2 -16.45 91.2 -15.100000000000001Q91.2 -13.25 92.125 -11.925Q93.05000000000001 -10.600000000000001 94.75 -9.900000000000002Q96.45 -9.200000000000001 98.80000000000001 -9.200000000000001Z M147.3 0.0 127.70000000000002 -54.0H141.3L154.10000000000002 -16.6L166.90000000000003 -54.0H180.50000000000003L160.90000000000003 0.0Z M208.10000000000002 1.5Q199.80000000000004 1.5 193.47500000000002 -2.075Q187.15000000000003 -5.65 183.57500000000005 -11.925Q180.00000000000003 -18.2 180.00000000000003 -26.3Q180.00000000000003 -35.15 183.50000000000003 -41.7Q187.00000000000003 -48.25 193.15000000000003 -51.875Q199.30000000000004 -55.5 207.30000000000004 -55.5Q215.80000000000004 -55.5 221.75000000000006 -51.5Q227.70000000000005 -47.5 230.55000000000004 -40.25Q233.40000000000003 -33.0 232.55000000000004 -23.200000000000003H219.10000000000002V-28.200000000000003Q219.10000000000002 -36.45 216.47500000000002 -40.075Q213.85000000000002 -43.7 207.90000000000003 -43.7Q200.95000000000005 -43.7 197.67500000000004 -39.475Q194.40000000000003 -35.25 194.40000000000003 -27.0Q194.40000000000003 -19.450000000000003 197.67500000000004 -15.325000000000003Q200.95000000000005 -11.200000000000001 207.30000000000004 -11.200000000000001Q211.30000000000004 -11.200000000000001 214.15000000000003 -12.950000000000001Q217.00000000000003 -14.700000000000001 218.50000000000003 -18.0L232.10000000000002 -14.100000000000001Q229.05000000000004 -6.7 222.47500000000002 -2.6Q215.90000000000003 1.5 208.10000000000002 1.5ZM190.20000000000002 -23.200000000000003V-33.300000000000004H226.00000000000003V-23.200000000000003Z"/><path fill="#1558E0" d="M240.30000000000004 0.0V-73.5H253.90000000000003V0.0Z M265.40000000000003 -61.5V-73.5H279.00000000000006V-61.5ZM265.40000000000003 0.0V-54.0H279.00000000000006V0.0Z M326.30000000000007 0.0V-25.5Q326.30000000000007 -27.35 326.1000000000001 -30.225Q325.9000000000001 -33.1 324.8500000000001 -36.0Q323.80000000000007 -38.900000000000006 321.42500000000007 -40.85000000000001Q319.05000000000007 -42.800000000000004 314.70000000000005 -42.800000000000004Q312.95000000000005 -42.800000000000004 310.95000000000005 -42.25Q308.95000000000005 -41.7 307.20000000000005 -40.125Q305.45000000000005 -38.550000000000004 304.32500000000005 -35.5Q303.20000000000005 -32.45 303.20000000000005 -27.400000000000002L295.40000000000003 -31.1Q295.40000000000003 -37.5 298.00000000000006 -43.1Q300.6000000000001 -48.7 305.82500000000005 -52.150000000000006Q311.05000000000007 -55.6 319.00000000000006 -55.6Q325.3500000000001 -55.6 329.3500000000001 -53.45Q333.3500000000001 -51.300000000000004 335.57500000000005 -48.0Q337.80000000000007 -44.7 338.75000000000006 -41.125Q339.70000000000005 -37.550000000000004 339.9000000000001 -34.6Q340.1000000000001 -31.650000000000002 340.1000000000001 -30.3V0.0ZM289.40000000000003 0.0V-54.0H301.50000000000006V-36.1H303.20000000000005V0.0Z M348.50000000000006 0.0 348.6000000000001 -72.0H362.4000000000001V-28.0L380.7000000000001 -54.0H397.5000000000001L378.00000000000006 -27.0L398.80000000000007 0.0H381.1000000000001L362.4000000000001 -26.0V0.0Z"/></g></svg>
