<svg xmlns="http://www.w3.org/2000/svg" viewBox="0 0 64 64" width="64" height="64"><defs><clipPath id="wl-r-aqua"><rect width="64" height="64" rx="15"/></clipPath></defs><g clip-path="url(#wl-r-aqua)"><defs><linearGradient id="wl-sky-aqua" x1="0" y1="0" x2="0" y2="1"><stop offset="0" stop-color="#4FD2EA"/><stop offset="1" stop-color="#22B4D6"/></linearGradient><linearGradient id="wl-sea-aqua" x1="0" y1="0" x2="0" y2="1"><stop offset="0" stop-color="#0B6E8A"/><stop offset="1" stop-color="#07455A"/></linearGradient></defs><rect width="64" height="64" fill="url(#wl-sky-aqua)"/><path d="M-2 37C6 37 12 29 22 28 32 27 36 32.4 44 32.4 52 32.4 56 26 66 24V66H-2Z" fill="#B5EEF7" fill-opacity="0.6"/><path d="M-2 45.5C10 45 20 40.6 28 36.2 31 34.6 34 34.2 36.2 35 37.8 35.6 38.8 36.6 39.4 37.8 42.2 39.8 47 40.4 66 38.8V66H-2Z" fill="url(#wl-sea-aqua)"/><path d="M-2 45.5C10 45 20 40.6 28 36.2 31 34.6 34 34.2 36.2 35 37.8 35.6 38.8 36.6 39.4 37.8" fill="none" stroke="#FFFFFF" stroke-width="5" stroke-linecap="round" stroke-linejoin="round"/></g></svg>
